<svg xmlns="http://www.w3.org/2000/svg" viewBox="0 0 800 600">
  <defs>
    <linearGradient id="shieldGrad" x1="0%" y1="0%" x2="100%" y2="100%">
      <stop offset="0%" style="stop-color:#1a1a2e"/>
      <stop offset="100%" style="stop-color:#16213e"/>
    </linearGradient>
    <filter id="glow">
      <feGaussianBlur stdDeviation="3" result="coloredBlur"/>
      <feMerge>
        <feMergeNode in="coloredBlur"/>
        <feMergeNode in="SourceGraphic"/>
      </feMerge>
    </filter>
  </defs>
  <rect width="800" height="600" fill="#0a0a0f"/>
  <path d="M400 60 L620 140 L620 340 Q620 480 400 560 Q180 480 180 340 L180 140 Z" fill="none" stroke="#ff3c14" stroke-width="3" filter="url(#glow)"/>
  <path d="M400 85 L595 155 L595 330 Q595 455 400 530 Q205 455 205 330 L205 155 Z" fill="rgba(255,60,20,0.05)" stroke="#ff3c14" stroke-width="1.5" stroke-dasharray="8,4"/>
  <path d="M400 110 L570 170 L570 320 Q570 430 400 500 Q230 430 230 320 L230 170 Z" fill="rgba(34,197,94,0.05)" stroke="#22c55e" stroke-width="1.5" stroke-dasharray="8,4"/>
  <path d="M400 135 L545 185 L545 310 Q545 405 400 470 Q255 405 255 310 L255 185 Z" fill="rgba(255,60,20,0.08)" stroke="#ff3c14" stroke-width="1.5" stroke-dasharray="8,4"/>
  <path d="M400 160 L520 200 L520 300 Q520 380 400 440 Q280 380 280 300 L280 200 Z" fill="rgba(255,60,20,0.12)" stroke="#ff3c14" stroke-width="2"/>
  <circle cx="400" cy="310" r="22" fill="none" stroke="#22c55e" stroke-width="2"/>
  <path d="M388 310 L396 318 L414 300" fill="none" stroke="#22c55e" stroke-width="2.5" stroke-linecap="round" stroke-linejoin="round"/>
  <text x="400" y="220" text-anchor="middle" fill="#e6e6e6" font-family="monospace" font-size="14" font-weight="bold">AEGIS SECURITY</text>
  <text x="400" y="240" text-anchor="middle" fill="#7d8590" font-family="monospace" font-size="10">Zero-Trust Defense in Depth · 4 Independent Layers</text>
  <text x="400" y="285" text-anchor="middle" fill="#ff3c14" font-family="monospace" font-size="12" font-weight="bold">ID AUTH</text>
  <text x="400" y="335" text-anchor="middle" fill="#e6e6e6" font-family="monospace" font-size="12" font-weight="bold">CHANNEL AUTH</text>
  <text x="400" y="390" text-anchor="middle" fill="#ff3c14" font-family="monospace" font-size="12" font-weight="bold">EXEC BOUND</text>
  <text x="400" y="440" text-anchor="middle" fill="#e6e6e6" font-family="monospace" font-size="12" font-weight="bold">AUDIT</text>
  <text x="400" y="458" text-anchor="middle" fill="#7d8590" font-family="monospace" font-size="9" opacity="0.8">Immutable Log · Compliance</text>
  <text x="400" y="580" text-anchor="middle" fill="#7d8590" font-family="monospace" font-size="10">Identity → Channel → Execution → Audit · All Independent</text>
</svg>