<svg xmlns="http://www.w3.org/2000/svg" viewBox="0 0 800 500">
  <defs>
    <filter id="glow" x="-20%" y="-20%" width="140%" height="140%">
      <feGaussianBlur stdDeviation="2" result="coloredBlur"/>
      <feMerge><feMergeNode in="coloredBlur"/><feMergeNode in="SourceGraphic"/></feMerge>
    </filter>
  </defs>
  <rect width="800" height="500" fill="#0a0a0f"/>
  <text x="400" y="30" text-anchor="middle" fill="#e6e6e6" font-family="monospace" font-size="15" font-weight="bold" letter-spacing="2">PROVIDER FREEDOM MATRIX</text>
  <text x="400" y="48" text-anchor="middle" fill="#7d8590" font-family="monospace" font-size="10">19 providers · One config · Swap without code changes</text>
  <!-- Header row -->
  <rect x="30" y="65" width="130" height="30" rx="4" fill="#1a1a2e" stroke="rgba(255,60,20,0.25)" stroke-width="1"/>
  <text x="95" y="84" text-anchor="middle" fill="#7d8590" font-family="monospace" font-size="9" font-weight="bold">PROVIDER</text>
  <rect x="165" y="65" width="90" height="30" rx="4" fill="#1a1a2e" stroke="rgba(255,60,20,0.25)" stroke-width="1"/>
  <text x="210" y="84" text-anchor="middle" fill="#7d8590" font-family="monospace" font-size="9" font-weight="bold">MODELS</text>
  <rect x="260" y="65" width="90" height="30" rx="4" fill="#1a1a2e" stroke="rgba(255,60,20,0.25)" stroke-width="1"/>
  <text x="305" y="84" text-anchor="middle" fill="#7d8590" font-family="monospace" font-size="9" font-weight="bold">CONTEXT</text>
  <rect x="355" y="65" width="70" height="30" rx="4" fill="#1a1a2e" stroke="rgba(255,60,20,0.25)" stroke-width="1"/>
  <text x="390" y="84" text-anchor="middle" fill="#7d8590" font-family="monospace" font-size="9" font-weight="bold">TOOLS</text>
  <rect x="430" y="65" width="80" height="30" rx="4" fill="#1a1a2e" stroke="rgba(255,60,20,0.25)" stroke-width="1"/>
  <text x="470" y="84" text-anchor="middle" fill="#7d8590" font-family="monospace" font-size="9" font-weight="bold">VISION</text>
  <rect x="515" y="65" width="70" height="30" rx="4" fill="#1a1a2e" stroke="rgba(255,60,20,0.25)" stroke-width="1"/>
  <text x="550" y="84" text-anchor="middle" fill="#7d8590" font-family="monospace" font-size="9" font-weight="bold">STREAM</text>
  <rect x="590" y="65" width="90" height="30" rx="4" fill="#1a1a2e" stroke="rgba(255,60,20,0.25)" stroke-width="1"/>
  <text x="635" y="84" text-anchor="middle" fill="#7d8590" font-family="monospace" font-size="9" font-weight="bold">STATUS</text>
  <rect x="685" y="65" width="85" height="30" rx="4" fill="#1a1a2e" stroke="rgba(255,60,20,0.25)" stroke-width="1"/>
  <text x="727" y="84" text-anchor="middle" fill="#7d8590" font-family="monospace" font-size="9" font-weight="bold">COST</text>
  <!-- Row 1: Anthropic -->
  <rect x="30" y="100" width="130" height="32" rx="4" fill="#1a1a2e" stroke="#ff3c14" stroke-width="1.5"/>
  <text x="95" y="120" text-anchor="middle" fill="#ff3c14" font-family="monospace" font-size="9" font-weight="bold">Anthropic</text>
  <rect x="165" y="100" width="90" height="32" rx="0" fill="#1a1a2e" stroke="none"/>
  <text x="210" y="120" text-anchor="middle" fill="#e6e6e6" font-family="monospace" font-size="9">Claude 3.5/3.7</text>
  <rect x="260" y="100" width="90" height="32" rx="0" fill="#1a1a2e" stroke="none"/>
  <text x="305" y="120" text-anchor="middle" fill="#e6e6e6" font-family="monospace" font-size="9">200K</text>
  <rect x="355" y="100" width="70" height="32" rx="0" fill="#1a1a2e" stroke="none"/>
  <text x="390" y="120" text-anchor="middle" fill="#22c55e" font-family="monospace" font-size="9">✓</text>
  <rect x="430" y="100" width="80" height="32" rx="0" fill="#1a1a2e" stroke="none"/>
  <text x="470" y="120" text-anchor="middle" fill="#22c55e" font-family="monospace" font-size="9">✓</text>
  <rect x="515" y="100" width="70" height="32" rx="0" fill="#1a1a2e" stroke="none"/>
  <text x="550" y="120" text-anchor="middle" fill="#22c55e" font-family="monospace" font-size="9">✓</text>
  <rect x="590" y="100" width="90" height="32" rx="0" fill="#1a1a2e" stroke="none"/>
  <text x="635" y="120" text-anchor="middle" fill="#22c55e" font-family="monospace" font-size="9">● ACTIVE</text>
  <rect x="685" y="100" width="85" height="32" rx="0 4 4 0" fill="#1a1a2e" stroke="none"/>
  <text x="727" y="120" text-anchor="middle" fill="#e6e6e6" font-family="monospace" font-size="8">Pay-per-use</text>
  <!-- Row 2: OpenAI -->
  <rect x="30" y="136" width="130" height="32" rx="4" fill="#1a1a2e" stroke="rgba(255,60,20,0.25)" stroke-width="1"/>
  <text x="95" y="156" text-anchor="middle" fill="#e6e6e6" font-family="monospace" font-size="9" font-weight="bold">OpenAI</text>
  <rect x="165" y="136" width="90" height="32" rx="0" fill="#1a1a2e" stroke="none"/>
  <text x="210" y="156" text-anchor="middle" fill="#e6e6e6" font-family="monospace" font-size="9">GPT-4o/o1/o3</text>
  <rect x="260" y="136" width="90" height="32" rx="0" fill="#1a1a2e" stroke="none"/>
  <text x="305" y="156" text-anchor="middle" fill="#e6e6e6" font-family="monospace" font-size="9">128K</text>
  <rect x="355" y="136" width="70" height="32" rx="0" fill="#1a1a2e" stroke="none"/>
  <text x="390" y="156" text-anchor="middle" fill="#22c55e" font-family="monospace" font-size="9">✓</text>
  <rect x="430" y="136" width="80" height="32" rx="0" fill="#1a1a2e" stroke="none"/>
  <text x="470" y="156" text-anchor="middle" fill="#22c55e" font-family="monospace" font-size="9">✓</text>
  <rect x="515" y="136" width="70" height="32" rx="0" fill="#1a1a2e" stroke="none"/>
  <text x="550" y="156" text-anchor="middle" fill="#22c55e" font-family="monospace" font-size="9">✓</text>
  <rect x="590" y="136" width="90" height="32" rx="0" fill="#1a1a2e" stroke="none"/>
  <text x="635" y="156" text-anchor="middle" fill="#22c55e" font-family="monospace" font-size="9">● ACTIVE</text>
  <rect x="685" y="136" width="85" height="32" rx="0 4 4 0" fill="#1a1a2e" stroke="none"/>
  <text x="727" y="156" text-anchor="middle" fill="#e6e6e6" font-family="monospace" font-size="8">Pay-per-use</text>
  <!-- Row 3: Google -->
  <rect x="30" y="172" width="130" height="32" rx="4" fill="#1a1a2e" stroke="rgba(255,60,20,0.25)" stroke-width="1"/>
  <text x="95" y="192" text-anchor="middle" fill="#e6e6e6" font-family="monospace" font-size="9" font-weight="bold">Google</text>
  <rect x="165" y="172" width="90" height="32" rx="0" fill="#1a1a2e" stroke="none"/>
  <text x="210" y="192" text-anchor="middle" fill="#e6e6e6" font-family="monospace" font-size="9">Gemini 1.5/2.0</text>
  <rect x="260" y="172" width="90" height="32" rx="0" fill="#1a1a2e" stroke="none"/>
  <text x="305" y="192" text-anchor="middle" fill="#22c55e" font-family="monospace" font-size="9">2M</text>
  <rect x="355" y="172" width="70" height="32" rx="0" fill="#1a1a2e" stroke="none"/>
  <text x="390" y="192" text-anchor="middle" fill="#22c55e" font-family="monospace" font-size="9">✓</text>
  <rect x="430" y="172" width="80" height="32" rx="0" fill="#1a1a2e" stroke="none"/>
  <text x="470" y="192" text-anchor="middle" fill="#22c55e" font-family="monospace" font-size="9">✓</text>
  <rect x="515" y="172" width="70" height="32" rx="0" fill="#1a1a2e" stroke="none"/>
  <text x="550" y="192" text-anchor="middle" fill="#22c55e" font-family="monospace" font-size="9">✓</text>
  <rect x="590" y="172" width="90" height="32" rx="0" fill="#1a1a2e" stroke="none"/>
  <text x="635" y="192" text-anchor="middle" fill="#22c55e" font-family="monospace" font-size="9">● ACTIVE</text>
  <rect x="685" y="172" width="85" height="32" rx="0 4 4 0" fill="#1a1a2e" stroke="none"/>
  <text x="727" y="192" text-anchor="middle" fill="#e6e6e6" font-family="monospace" font-size="8">Pay-per-use</text>
  <!-- Rows 4-7 (grouped) -->
  <rect x="30" y="208" width="130" height="100" rx="4" fill="#1a1a2e" stroke="rgba(255,60,20,0.25)" stroke-width="1"/>
  <text x="95" y="235" text-anchor="middle" fill="#7d8590" font-family="monospace" font-size="9">Ollama · Groq</text>
  <text x="95" y="250" text-anchor="middle" fill="#7d8590" font-family="monospace" font-size="9">Mistral · Together</text>
  <text x="95" y="265" text-anchor="middle" fill="#7d8590" font-family="monospace" font-size="9">Fireworks · Azure</text>
  <text x="95" y="290" text-anchor="middle" fill="#e6e6e6" font-family="monospace" font-size="9">+ 9 more</text>
  <rect x="165" y="208" width="90" height="100" rx="0" fill="#1a1a2e" stroke="none"/>
  <text x="210" y="250" text-anchor="middle" fill="#7d8590" font-family="monospace" font-size="9">Local +</text>
  <text x="210" y="265" text-anchor="middle" fill="#7d8590" font-family="monospace" font-size="9">cloud models</text>
  <rect x="260" y="208" width="90" height="100" rx="0" fill="#1a1a2e" stroke="none"/>
  <text x="305" y="250" text-anchor="middle" fill="#7d8590" font-family="monospace" font-size="9">varies</text>
  <rect x="355" y="208" width="70" height="100" rx="0" fill="#1a1a2e" stroke="none"/>
  <text x="390" y="250" text-anchor="middle" fill="#7d8590" font-family="monospace" font-size="9">mostly</text>
  <rect x="430" y="208" width="80" height="100" rx="0" fill="#1a1a2e" stroke="none"/>
  <text x="470" y="250" text-anchor="middle" fill="#7d8590" font-family="monospace" font-size="9">varies</text>
  <rect x="515" y="208" width="70" height="100" rx="0" fill="#1a1a2e" stroke="none"/>
  <text x="550" y="250" text-anchor="middle" fill="#7d8590" font-family="monospace" font-size="9">mostly</text>
  <rect x="590" y="208" width="90" height="100" rx="0" fill="#1a1a2e" stroke="none"/>
  <text x="635" y="250" text-anchor="middle" fill="#7d8590" font-family="monospace" font-size="9">● READY</text>
  <rect x="685" y="208" width="85" height="100" rx="0 4 4 0" fill="#1a1a2e" stroke="none"/>
  <text x="727" y="240" text-anchor="middle" fill="#7d8590" font-family="monospace" font-size="9">Free</text>
  <text x="727" y="258" text-anchor="middle" fill="#7d8590" font-family="monospace" font-size="9">(local)</text>
  <text x="727" y="276" text-anchor="middle" fill="#7d8590" font-family="monospace" font-size="9">or</text>
  <text x="727" y="294" text-anchor="middle" fill="#7d8590" font-family="monospace" font-size="9">pay-per-use</text>
  <!-- Footer -->
  <rect x="30" y="315" width="740" height="45" rx="6" fill="#1a1a2e" stroke="#ff3c14" stroke-width="1.5" filter="url(#glow)"/>
  <text x="400" y="335" text-anchor="middle" fill="#ff3c14" font-family="monospace" font-size="11" font-weight="bold">PROVIDER-AGNOSTIC RUNTIME</text>
  <text x="400" y="352" text-anchor="middle" fill="#7d8590" font-family="monospace" font-size="10">Swap provider in config.toml · Zero code changes · All tools work across all providers</text>
  <text x="30" y="390" text-anchor="left" fill="#7d8590" font-family="monospace" font-size="9">Supported: Anthropic · OpenAI · Google · Ollama · Groq · Mistral · Together · Fireworks · Azure · Bedrock · DeepSeek · xAI · Cerebras · Moonshot · Zhipu · Qwen · Novita · Lepton · AiDev · Hyper</text>
  <text x="400" y="470" text-anchor="middle" fill="#7d8590" font-family="monospace" font-size="10">config.toml: provider = "anthropic" · zeus config set provider openai · No reinstallation needed</text>
</svg>